<?xml version="1.0" encoding="UTF-8" standalone="no"?><svg xmlns="http://www.w3.org/2000/svg" xmlns:xlink="http://www.w3.org/1999/xlink" fill="#ffffff" height="237.4" preserveAspectRatio="xMidYMid meet" version="1" viewBox="0.0 0.0 237.4 237.4" width="237.4" zoomAndPan="magnify"><g><g id="change1_1"><path d="M125.2,46.4c-36.3,0-65.8,29.5-65.8,65.8c0,11.9,3.2,23.4,9.2,33.5l-8.9,32.1l33.7-8c9.7,5.4,20.6,8.2,31.8,8.2 c36.3,0,65.8-29.5,65.8-65.8C191,75.9,161.5,46.4,125.2,46.4z M125.2,167.2c-10,0-19.7-2.7-28.2-7.7l-1.9-1.1L75,163.1l5.3-19.1 l-1.3-2c-5.7-8.8-8.7-19.2-8.7-29.8c0-30.3,24.7-55,55-55c30.3,0,55,24.7,55,55C180.2,142.6,155.5,167.2,125.2,167.2z"/><path d="M156.5,135.9c-0.5,2.7-6.3,6.1-10,7.1c-9.2,2.4-22.1-4.6-34.9-15.7c-12.9-11.2-21.6-23-20.4-32.4c0.4-3.7,3.1-10,5.7-10.8 c2.5-0.8,4.3-0.1,6.9,0.8c1.3,1.4,2.9,3.2,4.7,5.2c2.4,2.7,4,5.2,5.1,6.9c0.8,1.4,0.5,3.2-0.7,4.3l-4.4,3.9 c-0.8,0.7-1.1,1.9-0.6,2.8c1.4,2.9,4.6,8.9,9.3,13c4.7,4.1,11.1,6.4,14.1,7.4c1,0.3,2.1-0.1,2.7-1l3.3-4.9 c0.9-1.3,2.7-1.9,4.2-1.3c1.8,0.8,4.5,2,7.5,4c2.3,1.5,4.2,2.9,5.8,4C156,131.6,157,133.3,156.5,135.9z"/></g><g id="change1_2"><path d="M118.7,237.4C53.3,237.4,0,184.2,0,118.7C0,53.3,53.3,0,118.7,0s118.7,53.3,118.7,118.7 C237.4,184.2,184.2,237.4,118.7,237.4z M118.7,6.5C56.8,6.5,6.5,56.8,6.5,118.7c0,61.9,50.3,112.2,112.2,112.2 s112.2-50.3,112.2-112.2C230.9,56.8,180.6,6.5,118.7,6.5z"/></g></g></svg>